<svg xmlns="http://www.w3.org/2000/svg" viewBox="0 0 256 256">
  <rect width="256" height="256" fill="#0f172a"/>
  <circle cx="128" cy="48" r="16" fill="#06b6d4"/>
  <rect x="124" y="64" width="8" height="40" fill="#06b6d4"/>
  <circle cx="128" cy="104" r="12" fill="#06b6d4"/>
  <rect x="124" y="116" width="8" height="24" fill="#06b6d4"/>
  <line x1="128" y1="140" x2="80" y2="172" stroke="#06b6d4" stroke-width="8"/>
  <line x1="128" y1="140" x2="176" y2="172" stroke="#06b6d4" stroke-width="8"/>
  <circle cx="80" cy="172" r="12" fill="#06b6d4"/>
  <circle cx="176" cy="172" r="12" fill="#06b6d4"/>
  <rect x="76" y="184" width="8" height="24" fill="#06b6d4"/>
  <rect x="172" y="184" width="8" height="24" fill="#06b6d4"/>
  <line x1="80" y1="208" x2="48" y2="232" stroke="#06b6d4" stroke-width="6"/>
  <line x1="80" y1="208" x2="112" y2="232" stroke="#06b6d4" stroke-width="6"/>
  <line x1="176" y1="208" x2="144" y2="232" stroke="#06b6d4" stroke-width="6"/>
  <line x1="176" y1="208" x2="208" y2="232" stroke="#06b6d4" stroke-width="6"/>
  <circle cx="48" cy="232" r="10" fill="#06b6d4"/>
  <circle cx="112" cy="232" r="10" fill="#06b6d4"/>
  <circle cx="144" cy="232" r="10" fill="#06b6d4"/>
  <circle cx="208" cy="232" r="10" fill="#06b6d4"/>
</svg>